<svg id="visual" viewBox="0 0 1920 1080" width="1920" height="1080" xmlns="http://www.w3.org/2000/svg" xmlns:xlink="http://www.w3.org/1999/xlink" version="1.1"><path d="M0 77L22.8 89.5C45.7 102 91.3 127 137 137.7C182.7 148.3 228.3 144.7 274 123.2C319.7 101.7 365.3 62.3 411.2 51.7C457 41 503 59 548.8 75.2C594.7 91.3 640.3 105.7 686 109.2C731.7 112.7 777.3 105.3 823 108.8C868.7 112.3 914.3 126.7 960 112.3C1005.7 98 1051.3 55 1097 33.5C1142.7 12 1188.3 12 1234 28.2C1279.7 44.3 1325.3 76.7 1371.2 92.8C1417 109 1463 109 1508.8 98.2C1554.7 87.3 1600.3 65.7 1646 49.5C1691.7 33.3 1737.3 22.7 1783 26.3C1828.7 30 1874.3 48 1897.2 57L1920 66L1920 0L1897.2 0C1874.3 0 1828.7 0 1783 0C1737.3 0 1691.7 0 1646 0C1600.3 0 1554.7 0 1508.8 0C1463 0 1417 0 1371.2 0C1325.3 0 1279.7 0 1234 0C1188.3 0 1142.7 0 1097 0C1051.3 0 1005.7 0 960 0C914.3 0 868.7 0 823 0C777.3 0 731.7 0 686 0C640.3 0 594.7 0 548.8 0C503 0 457 0 411.2 0C365.3 0 319.7 0 274 0C228.3 0 182.7 0 137 0C91.3 0 45.7 0 22.8 0L0 0Z" fill="#b4bbc3"></path><path d="M0 109L22.8 134.2C45.7 159.3 91.3 209.7 137 240.3C182.7 271 228.3 282 274 262.2C319.7 242.3 365.3 191.7 411.2 180.8C457 170 503 199 548.8 217C594.7 235 640.3 242 686 247.3C731.7 252.7 777.3 256.3 823 243.8C868.7 231.3 914.3 202.7 960 175.7C1005.7 148.7 1051.3 123.3 1097 123.3C1142.7 123.3 1188.3 148.7 1234 177.5C1279.7 206.3 1325.3 238.7 1371.2 254.8C1417 271 1463 271 1508.8 258.3C1554.7 245.7 1600.3 220.3 1646 193.3C1691.7 166.3 1737.3 137.7 1783 145C1828.7 152.3 1874.3 195.7 1897.2 217.3L1920 239L1920 64L1897.2 55C1874.3 46 1828.7 28 1783 24.3C1737.3 20.7 1691.7 31.3 1646 47.5C1600.3 63.7 1554.7 85.3 1508.8 96.2C1463 107 1417 107 1371.2 90.8C1325.3 74.7 1279.7 42.3 1234 26.2C1188.3 10 1142.7 10 1097 31.5C1051.3 53 1005.7 96 960 110.3C914.3 124.7 868.7 110.3 823 106.8C777.3 103.3 731.7 110.7 686 107.2C640.3 103.7 594.7 89.3 548.8 73.2C503 57 457 39 411.2 49.7C365.3 60.3 319.7 99.7 274 121.2C228.3 142.7 182.7 146.3 137 135.7C91.3 125 45.7 100 22.8 87.5L0 75Z" fill="#abb2bc"></path><path d="M0 239L22.8 253.3C45.7 267.7 91.3 296.3 137 325C182.7 353.7 228.3 382.3 274 371.5C319.7 360.7 365.3 310.3 411.2 297.8C457 285.3 503 310.7 548.8 312.5C594.7 314.3 640.3 292.7 686 299.8C731.7 307 777.3 343 823 344.8C868.7 346.7 914.3 314.3 960 269.3C1005.7 224.3 1051.3 166.7 1097 161.2C1142.7 155.7 1188.3 202.3 1234 252.7C1279.7 303 1325.3 357 1371.2 371.5C1417 386 1463 361 1508.8 337.7C1554.7 314.3 1600.3 292.7 1646 260.2C1691.7 227.7 1737.3 184.3 1783 184.3C1828.7 184.3 1874.3 227.7 1897.2 249.3L1920 271L1920 237L1897.2 215.3C1874.3 193.7 1828.7 150.3 1783 143C1737.3 135.7 1691.7 164.3 1646 191.3C1600.3 218.3 1554.7 243.7 1508.8 256.3C1463 269 1417 269 1371.2 252.8C1325.3 236.7 1279.7 204.3 1234 175.5C1188.3 146.7 1142.7 121.3 1097 121.3C1051.3 121.3 1005.7 146.7 960 173.7C914.3 200.7 868.7 229.3 823 241.8C777.3 254.3 731.7 250.7 686 245.3C640.3 240 594.7 233 548.8 215C503 197 457 168 411.2 178.8C365.3 189.7 319.7 240.3 274 260.2C228.3 280 182.7 269 137 238.3C91.3 207.7 45.7 157.3 22.8 132.2L0 107Z" fill="#a2aab4"></path><path d="M0 368L22.8 384.2C45.7 400.3 91.3 432.7 137 450.7C182.7 468.7 228.3 472.3 274 470.7C319.7 469 365.3 462 411.2 467.5C457 473 503 491 548.8 489.2C594.7 487.3 640.3 465.7 686 472.8C731.7 480 777.3 516 823 496.2C868.7 476.3 914.3 400.7 960 330.5C1005.7 260.3 1051.3 195.7 1097 193.8C1142.7 192 1188.3 253 1234 314.2C1279.7 375.3 1325.3 436.7 1371.2 447.5C1417 458.3 1463 418.7 1508.8 404.2C1554.7 389.7 1600.3 400.3 1646 384.2C1691.7 368 1737.3 325 1783 307C1828.7 289 1874.3 296 1897.2 299.5L1920 303L1920 269L1897.2 247.3C1874.3 225.7 1828.7 182.3 1783 182.3C1737.3 182.3 1691.7 225.7 1646 258.2C1600.3 290.7 1554.7 312.3 1508.8 335.7C1463 359 1417 384 1371.2 369.5C1325.3 355 1279.7 301 1234 250.7C1188.3 200.3 1142.7 153.7 1097 159.2C1051.3 164.7 1005.7 222.3 960 267.3C914.3 312.3 868.7 344.7 823 342.8C777.3 341 731.7 305 686 297.8C640.3 290.7 594.7 312.3 548.8 310.5C503 308.7 457 283.3 411.2 295.8C365.3 308.3 319.7 358.7 274 369.5C228.3 380.3 182.7 351.7 137 323C91.3 294.3 45.7 265.7 22.8 251.3L0 237Z" fill="#98a1ad"></path><path d="M0 552L22.8 561C45.7 570 91.3 588 137 609.5C182.7 631 228.3 656 274 672.2C319.7 688.3 365.3 695.7 411.2 712C457 728.3 503 753.7 548.8 757.3C594.7 761 640.3 743 686 743C731.7 743 777.3 761 823 714.2C868.7 667.3 914.3 555.7 960 552C1005.7 548.3 1051.3 652.7 1097 650.8C1142.7 649 1188.3 541 1234 550C1279.7 559 1325.3 685 1371.2 695.8C1417 706.7 1463 602.3 1508.8 591.5C1554.7 580.7 1600.3 663.3 1646 684.8C1691.7 706.3 1737.3 666.7 1783 614.5C1828.7 562.3 1874.3 497.7 1897.2 465.3L1920 433L1920 301L1897.2 297.5C1874.3 294 1828.7 287 1783 305C1737.3 323 1691.7 366 1646 382.2C1600.3 398.3 1554.7 387.7 1508.8 402.2C1463 416.7 1417 456.3 1371.2 445.5C1325.3 434.7 1279.7 373.3 1234 312.2C1188.3 251 1142.7 190 1097 191.8C1051.3 193.7 1005.7 258.3 960 328.5C914.3 398.7 868.7 474.3 823 494.2C777.3 514 731.7 478 686 470.8C640.3 463.7 594.7 485.3 548.8 487.2C503 489 457 471 411.2 465.5C365.3 460 319.7 467 274 468.7C228.3 470.3 182.7 466.7 137 448.7C91.3 430.7 45.7 398.3 22.8 382.2L0 366Z" fill="#8e97a2"></path><path d="M0 833L22.8 843.7C45.7 854.3 91.3 875.7 137 870.2C182.7 864.7 228.3 832.3 274 816.2C319.7 800 365.3 800 411.2 810.8C457 821.7 503 843.3 548.8 859.5C594.7 875.7 640.3 886.3 686 899C731.7 911.7 777.3 926.3 823 937.2C868.7 948 914.3 955 960 937C1005.7 919 1051.3 876 1097 867C1142.7 858 1188.3 883 1234 897.3C1279.7 911.7 1325.3 915.3 1371.2 920.8C1417 926.3 1463 933.7 1508.8 948C1554.7 962.3 1600.3 983.7 1646 951.2C1691.7 918.7 1737.3 832.3 1783 785.7C1828.7 739 1874.3 732 1897.2 728.5L1920 725L1920 431L1897.2 463.3C1874.3 495.7 1828.7 560.3 1783 612.5C1737.3 664.7 1691.7 704.3 1646 682.8C1600.3 661.3 1554.7 578.7 1508.8 589.5C1463 600.3 1417 704.7 1371.2 693.8C1325.3 683 1279.7 557 1234 548C1188.3 539 1142.7 647 1097 648.8C1051.3 650.7 1005.7 546.3 960 550C914.3 553.7 868.7 665.3 823 712.2C777.3 759 731.7 741 686 741C640.3 741 594.7 759 548.8 755.3C503 751.7 457 726.3 411.2 710C365.3 693.7 319.7 686.3 274 670.2C228.3 654 182.7 629 137 607.5C91.3 586 45.7 568 22.8 559L0 550Z" fill="#838b95"></path><path d="M0 887L22.8 903.2C45.7 919.3 91.3 951.7 137 944.3C182.7 937 228.3 890 274 870.2C319.7 850.3 365.3 857.7 411.2 879.3C457 901 503 937 548.8 962.2C594.7 987.3 640.3 1001.7 686 1005.3C731.7 1009 777.3 1002 823 996.7C868.7 991.3 914.3 987.7 960 964.2C1005.7 940.7 1051.3 897.3 1097 904.5C1142.7 911.7 1188.3 969.3 1234 987.3C1279.7 1005.3 1325.3 983.7 1371.2 989C1417 994.3 1463 1026.7 1508.8 1037.5C1554.7 1048.3 1600.3 1037.7 1646 992.7C1691.7 947.7 1737.3 868.3 1783 832.3C1828.7 796.3 1874.3 803.7 1897.2 807.3L1920 811L1920 723L1897.2 726.5C1874.3 730 1828.7 737 1783 783.7C1737.3 830.3 1691.7 916.7 1646 949.2C1600.3 981.7 1554.7 960.3 1508.8 946C1463 931.7 1417 924.3 1371.2 918.8C1325.3 913.3 1279.7 909.7 1234 895.3C1188.3 881 1142.7 856 1097 865C1051.3 874 1005.7 917 960 935C914.3 953 868.7 946 823 935.2C777.3 924.3 731.7 909.7 686 897C640.3 884.3 594.7 873.7 548.8 857.5C503 841.3 457 819.7 411.2 808.8C365.3 798 319.7 798 274 814.2C228.3 830.3 182.7 862.7 137 868.2C91.3 873.7 45.7 852.3 22.8 841.7L0 831Z" fill="#777f89"></path><path d="M0 1081L22.8 1081C45.7 1081 91.3 1081 137 1081C182.7 1081 228.3 1081 274 1081C319.7 1081 365.3 1081 411.2 1081C457 1081 503 1081 548.8 1081C594.7 1081 640.3 1081 686 1081C731.7 1081 777.3 1081 823 1081C868.7 1081 914.3 1081 960 1081C1005.7 1081 1051.3 1081 1097 1081C1142.7 1081 1188.3 1081 1234 1081C1279.7 1081 1325.3 1081 1371.2 1081C1417 1081 1463 1081 1508.8 1081C1554.7 1081 1600.3 1081 1646 1081C1691.7 1081 1737.3 1081 1783 1081C1828.7 1081 1874.3 1081 1897.2 1081L1920 1081L1920 809L1897.2 805.3C1874.3 801.7 1828.7 794.3 1783 830.3C1737.3 866.3 1691.7 945.7 1646 990.7C1600.3 1035.7 1554.7 1046.3 1508.8 1035.5C1463 1024.7 1417 992.3 1371.2 987C1325.3 981.7 1279.7 1003.3 1234 985.3C1188.3 967.3 1142.7 909.7 1097 902.5C1051.3 895.3 1005.7 938.7 960 962.2C914.3 985.7 868.7 989.3 823 994.7C777.3 1000 731.7 1007 686 1003.3C640.3 999.7 594.7 985.3 548.8 960.2C503 935 457 899 411.2 877.3C365.3 855.7 319.7 848.3 274 868.2C228.3 888 182.7 935 137 942.3C91.3 949.7 45.7 917.3 22.8 901.2L0 885Z" fill="#6c737c"></path></svg>