<svg id="visual" viewBox="0 0 1920 1080" width="1920" height="1080" xmlns="http://www.w3.org/2000/svg" xmlns:xlink="http://www.w3.org/1999/xlink" version="1.1"><g stroke-width="1" stroke-linejoin="bevel"><path d="M860.3 528L1064.7 487L853.3 402Z" fill="#303d6c" stroke="#303d6c"></path><path d="M1064.7 487L1057.7 381L853.3 402Z" fill="#1a2242" stroke="#1a2242"></path><path d="M1057.7 381L842.3 224L853.3 402Z" fill="#1e2649" stroke="#1e2649"></path><path d="M853.3 402L651 393L860.3 528Z" fill="#29335e" stroke="#29335e"></path><path d="M654 555L871.3 747L860.3 528Z" fill="#1a2242" stroke="#1a2242"></path><path d="M860.3 528L1067.7 737L1064.7 487Z" fill="#161e3c" stroke="#161e3c"></path><path d="M1275 371L1100.7 199L1057.7 381Z" fill="#1a2242" stroke="#1a2242"></path><path d="M1057.7 381L1100.7 199L842.3 224Z" fill="#1e2649" stroke="#1e2649"></path><path d="M871.3 747L1067.7 737L860.3 528Z" fill="#161e3c" stroke="#161e3c"></path><path d="M1064.7 487L1275 371L1057.7 381Z" fill="#131a35" stroke="#131a35"></path><path d="M842.3 224L651 393L853.3 402Z" fill="#1a2242" stroke="#1a2242"></path><path d="M651 393L654 555L860.3 528Z" fill="#38467b" stroke="#38467b"></path><path d="M1067.7 737L1240 593L1064.7 487Z" fill="#29335e" stroke="#29335e"></path><path d="M1240 593L1275 371L1064.7 487Z" fill="#1a2242" stroke="#1a2242"></path><path d="M813.3 0L669 209L842.3 224Z" fill="#131a35" stroke="#131a35"></path><path d="M842.3 224L669 209L651 393Z" fill="#131a35" stroke="#131a35"></path><path d="M403.7 670L594 734L654 555Z" fill="#252f57" stroke="#252f57"></path><path d="M654 555L594 734L871.3 747Z" fill="#161e3c" stroke="#161e3c"></path><path d="M483.7 406L654 555L651 393Z" fill="#1e2649" stroke="#1e2649"></path><path d="M878.3 939L1118.7 889L1067.7 737Z" fill="#131a35" stroke="#131a35"></path><path d="M1067.7 737L1293 773L1240 593Z" fill="#303d6c" stroke="#303d6c"></path><path d="M878.3 939L1067.7 737L871.3 747Z" fill="#29335e" stroke="#29335e"></path><path d="M1118.7 889L1293 773L1067.7 737Z" fill="#1e2649" stroke="#1e2649"></path><path d="M1240 593L1467.3 593L1275 371Z" fill="#131a35" stroke="#131a35"></path><path d="M669 209L483.7 406L651 393Z" fill="#212b50" stroke="#212b50"></path><path d="M1275 371L1310 143L1100.7 199Z" fill="#252f57" stroke="#252f57"></path><path d="M1095.7 0L813.3 0L842.3 224Z" fill="#1a2242" stroke="#1a2242"></path><path d="M1448.3 222L1310 143L1275 371Z" fill="#38467b" stroke="#38467b"></path><path d="M1095.7 0L842.3 224L1100.7 199Z" fill="#161e3c" stroke="#161e3c"></path><path d="M669 209L399.7 130L483.7 406Z" fill="#2d3865" stroke="#2d3865"></path><path d="M1310 143L1095.7 0L1100.7 199Z" fill="#2d3865" stroke="#2d3865"></path><path d="M621 948L878.3 939L871.3 747Z" fill="#2d3865" stroke="#2d3865"></path><path d="M813.3 0L695 0L669 209Z" fill="#161e3c" stroke="#161e3c"></path><path d="M1293 773L1467.3 593L1240 593Z" fill="#212b50" stroke="#212b50"></path><path d="M1493.3 302L1448.3 222L1275 371Z" fill="#303d6c" stroke="#303d6c"></path><path d="M1310 143L1282 0L1095.7 0Z" fill="#303d6c" stroke="#303d6c"></path><path d="M1467.3 593L1493.3 302L1275 371Z" fill="#1e2649" stroke="#1e2649"></path><path d="M1465.3 0L1282 0L1310 143Z" fill="#1e2649" stroke="#1e2649"></path><path d="M1118.7 889L1303 911L1293 773Z" fill="#252f57" stroke="#252f57"></path><path d="M1293 773L1505.3 771L1467.3 593Z" fill="#38467b" stroke="#38467b"></path><path d="M1110.7 1080L1303 911L1118.7 889Z" fill="#131a35" stroke="#131a35"></path><path d="M483.7 406L372.7 496L654 555Z" fill="#212b50" stroke="#212b50"></path><path d="M253.3 350L372.7 496L483.7 406Z" fill="#29335e" stroke="#29335e"></path><path d="M372.7 496L403.7 670L654 555Z" fill="#1a2242" stroke="#1a2242"></path><path d="M594 734L621 948L871.3 747Z" fill="#2d3865" stroke="#2d3865"></path><path d="M370.7 893L621 948L594 734Z" fill="#29335e" stroke="#29335e"></path><path d="M684 1080L857.3 1080L878.3 939Z" fill="#38467b" stroke="#38467b"></path><path d="M878.3 939L1110.7 1080L1118.7 889Z" fill="#303d6c" stroke="#303d6c"></path><path d="M1303 911L1505.3 771L1293 773Z" fill="#252f57" stroke="#252f57"></path><path d="M1467.3 593L1650.7 528L1493.3 302Z" fill="#161e3c" stroke="#161e3c"></path><path d="M857.3 1080L1110.7 1080L878.3 939Z" fill="#2d3865" stroke="#2d3865"></path><path d="M1303 911L1505.3 943L1505.3 771Z" fill="#2d3865" stroke="#2d3865"></path><path d="M455.7 0L399.7 130L669 209Z" fill="#1e2649" stroke="#1e2649"></path><path d="M621 948L684 1080L878.3 939Z" fill="#252f57" stroke="#252f57"></path><path d="M433.7 1080L684 1080L621 948Z" fill="#131a35" stroke="#131a35"></path><path d="M695 0L455.7 0L669 209Z" fill="#344174" stroke="#344174"></path><path d="M1654.7 0L1465.3 0L1448.3 222Z" fill="#38467b" stroke="#38467b"></path><path d="M1448.3 222L1465.3 0L1310 143Z" fill="#29335e" stroke="#29335e"></path><path d="M1686.7 753L1650.7 528L1467.3 593Z" fill="#1a2242" stroke="#1a2242"></path><path d="M1493.3 302L1709.7 150L1448.3 222Z" fill="#161e3c" stroke="#161e3c"></path><path d="M201.3 131L253.3 350L399.7 130Z" fill="#161e3c" stroke="#161e3c"></path><path d="M399.7 130L253.3 350L483.7 406Z" fill="#212b50" stroke="#212b50"></path><path d="M372.7 496L245.3 560L403.7 670Z" fill="#29335e" stroke="#29335e"></path><path d="M1110.7 1080L1300 1080L1303 911Z" fill="#212b50" stroke="#212b50"></path><path d="M253.3 350L245.3 560L372.7 496Z" fill="#303d6c" stroke="#303d6c"></path><path d="M403.7 670L370.7 893L594 734Z" fill="#29335e" stroke="#29335e"></path><path d="M195.3 688L370.7 893L403.7 670Z" fill="#1e2649" stroke="#1e2649"></path><path d="M1465.3 1080L1505.3 943L1303 911Z" fill="#161e3c" stroke="#161e3c"></path><path d="M1505.3 771L1686.7 753L1467.3 593Z" fill="#131a35" stroke="#131a35"></path><path d="M1679.7 945L1686.7 753L1505.3 771Z" fill="#131a35" stroke="#131a35"></path><path d="M0 542L195.3 688L245.3 560Z" fill="#252f57" stroke="#252f57"></path><path d="M245.3 560L195.3 688L403.7 670Z" fill="#131a35" stroke="#131a35"></path><path d="M1920 482L1738.7 350L1650.7 528Z" fill="#2d3865" stroke="#2d3865"></path><path d="M1650.7 528L1738.7 350L1493.3 302Z" fill="#131a35" stroke="#131a35"></path><path d="M1505.3 943L1679.7 945L1505.3 771Z" fill="#161e3c" stroke="#161e3c"></path><path d="M1300 1080L1465.3 1080L1303 911Z" fill="#131a35" stroke="#131a35"></path><path d="M370.7 893L433.7 1080L621 948Z" fill="#161e3c" stroke="#161e3c"></path><path d="M212.3 918L433.7 1080L370.7 893Z" fill="#212b50" stroke="#212b50"></path><path d="M1738.7 350L1709.7 150L1493.3 302Z" fill="#344174" stroke="#344174"></path><path d="M268.3 0L201.3 131L399.7 130Z" fill="#161e3c" stroke="#161e3c"></path><path d="M253.3 350L0 542L245.3 560Z" fill="#344174" stroke="#344174"></path><path d="M455.7 0L268.3 0L399.7 130Z" fill="#38467b" stroke="#38467b"></path><path d="M1709.7 150L1654.7 0L1448.3 222Z" fill="#1e2649" stroke="#1e2649"></path><path d="M195.3 688L212.3 918L370.7 893Z" fill="#29335e" stroke="#29335e"></path><path d="M1697.7 1080L1679.7 945L1505.3 943Z" fill="#344174" stroke="#344174"></path><path d="M1920 681L1920 482L1650.7 528Z" fill="#212b50" stroke="#212b50"></path><path d="M0 328L0 542L253.3 350Z" fill="#2d3865" stroke="#2d3865"></path><path d="M195.3 688L0 867L212.3 918Z" fill="#1e2649" stroke="#1e2649"></path><path d="M0 192L0 328L201.3 131Z" fill="#29335e" stroke="#29335e"></path><path d="M201.3 131L0 328L253.3 350Z" fill="#303d6c" stroke="#303d6c"></path><path d="M1920 681L1650.7 528L1686.7 753Z" fill="#38467b" stroke="#38467b"></path><path d="M1738.7 350L1920 229L1709.7 150Z" fill="#1e2649" stroke="#1e2649"></path><path d="M1709.7 150L1920 0L1654.7 0Z" fill="#252f57" stroke="#252f57"></path><path d="M1465.3 1080L1697.7 1080L1505.3 943Z" fill="#212b50" stroke="#212b50"></path><path d="M1920 874L1920 681L1686.7 753Z" fill="#252f57" stroke="#252f57"></path><path d="M1920 482L1920 378L1738.7 350Z" fill="#1a2242" stroke="#1a2242"></path><path d="M0 542L0 704L195.3 688Z" fill="#1e2649" stroke="#1e2649"></path><path d="M0 0L0 192L201.3 131Z" fill="#1a2242" stroke="#1a2242"></path><path d="M1920 874L1686.7 753L1679.7 945Z" fill="#303d6c" stroke="#303d6c"></path><path d="M1920 378L1920 229L1738.7 350Z" fill="#2d3865" stroke="#2d3865"></path><path d="M0 1080L174.3 1080L212.3 918Z" fill="#38467b" stroke="#38467b"></path><path d="M212.3 918L174.3 1080L433.7 1080Z" fill="#161e3c" stroke="#161e3c"></path><path d="M0 704L0 867L195.3 688Z" fill="#161e3c" stroke="#161e3c"></path><path d="M1920 1080L1920 874L1679.7 945Z" fill="#161e3c" stroke="#161e3c"></path><path d="M268.3 0L0 0L201.3 131Z" fill="#344174" stroke="#344174"></path><path d="M1920 229L1920 0L1709.7 150Z" fill="#344174" stroke="#344174"></path><path d="M0 867L0 1080L212.3 918Z" fill="#344174" stroke="#344174"></path><path d="M1697.7 1080L1920 1080L1679.7 945Z" fill="#161e3c" stroke="#161e3c"></path></g></svg>