<svg id="visual" viewBox="0 0 1920 1080" width="1920" height="1080" xmlns="http://www.w3.org/2000/svg" xmlns:xlink="http://www.w3.org/1999/xlink" version="1.1"><path d="M0 44L22.8 49.5C45.7 55 91.3 66 137 66C182.7 66 228.3 55 274 47.7C319.7 40.3 365.3 36.7 411.2 52.8C457 69 503 105 548.8 123C594.7 141 640.3 141 686 119.5C731.7 98 777.3 55 823 38.8C868.7 22.7 914.3 33.3 960 38.7C1005.7 44 1051.3 44 1097 45.8C1142.7 47.7 1188.3 51.3 1234 58.5C1279.7 65.7 1325.3 76.3 1371.2 89C1417 101.7 1463 116.3 1508.8 111C1554.7 105.7 1600.3 80.3 1646 80.3C1691.7 80.3 1737.3 105.7 1783 112.8C1828.7 120 1874.3 109 1897.2 103.5L1920 98L1920 0L1897.2 0C1874.3 0 1828.7 0 1783 0C1737.3 0 1691.7 0 1646 0C1600.3 0 1554.7 0 1508.8 0C1463 0 1417 0 1371.2 0C1325.3 0 1279.7 0 1234 0C1188.3 0 1142.7 0 1097 0C1051.3 0 1005.7 0 960 0C914.3 0 868.7 0 823 0C777.3 0 731.7 0 686 0C640.3 0 594.7 0 548.8 0C503 0 457 0 411.2 0C365.3 0 319.7 0 274 0C228.3 0 182.7 0 137 0C91.3 0 45.7 0 22.8 0L0 0Z" fill="#27477a"></path><path d="M0 401L22.8 361.3C45.7 321.7 91.3 242.3 137 195.5C182.7 148.7 228.3 134.3 274 134.3C319.7 134.3 365.3 148.7 411.2 177.5C457 206.3 503 249.7 548.8 278.5C594.7 307.3 640.3 321.7 686 319.8C731.7 318 777.3 300 823 312.5C868.7 325 914.3 368 960 360.8C1005.7 353.7 1051.3 296.3 1097 264C1142.7 231.7 1188.3 224.3 1234 244C1279.7 263.7 1325.3 310.3 1371.2 342.7C1417 375 1463 393 1508.8 402C1554.7 411 1600.3 411 1646 398.5C1691.7 386 1737.3 361 1783 325C1828.7 289 1874.3 242 1897.2 218.5L1920 195L1920 96L1897.2 101.5C1874.3 107 1828.7 118 1783 110.8C1737.3 103.7 1691.7 78.3 1646 78.3C1600.3 78.3 1554.7 103.7 1508.8 109C1463 114.3 1417 99.7 1371.2 87C1325.3 74.3 1279.7 63.7 1234 56.5C1188.3 49.3 1142.7 45.7 1097 43.8C1051.3 42 1005.7 42 960 36.7C914.3 31.3 868.7 20.7 823 36.8C777.3 53 731.7 96 686 117.5C640.3 139 594.7 139 548.8 121C503 103 457 67 411.2 50.8C365.3 34.7 319.7 38.3 274 45.7C228.3 53 182.7 64 137 64C91.3 64 45.7 53 22.8 47.5L0 42Z" fill="#203d6c"></path><path d="M0 530L22.8 476C45.7 422 91.3 314 137 254.7C182.7 195.3 228.3 184.7 274 184.7C319.7 184.7 365.3 195.3 411.2 227.7C457 260 503 314 548.8 339.2C594.7 364.3 640.3 360.7 686 366.2C731.7 371.7 777.3 386.3 823 413.3C868.7 440.3 914.3 479.7 960 474.2C1005.7 468.7 1051.3 418.3 1097 393.2C1142.7 368 1188.3 368 1234 380.7C1279.7 393.3 1325.3 418.7 1371.2 431.3C1417 444 1463 444 1508.8 460.2C1554.7 476.3 1600.3 508.7 1646 494.2C1691.7 479.7 1737.3 418.3 1783 380.5C1828.7 342.7 1874.3 328.3 1897.2 321.2L1920 314L1920 193L1897.2 216.5C1874.3 240 1828.7 287 1783 323C1737.3 359 1691.7 384 1646 396.5C1600.3 409 1554.7 409 1508.8 400C1463 391 1417 373 1371.2 340.7C1325.3 308.3 1279.7 261.7 1234 242C1188.3 222.3 1142.7 229.7 1097 262C1051.3 294.3 1005.7 351.7 960 358.8C914.3 366 868.7 323 823 310.5C777.3 298 731.7 316 686 317.8C640.3 319.7 594.7 305.3 548.8 276.5C503 247.7 457 204.3 411.2 175.5C365.3 146.7 319.7 132.3 274 132.3C228.3 132.3 182.7 146.7 137 193.5C91.3 240.3 45.7 319.7 22.8 359.3L0 399Z" fill="#18345f"></path><path d="M0 681L22.8 614.5C45.7 548 91.3 415 137 334C182.7 253 228.3 224 274 233C319.7 242 365.3 289 411.2 330.5C457 372 503 408 548.8 427.8C594.7 447.7 640.3 451.3 686 451.3C731.7 451.3 777.3 447.7 823 467.3C868.7 487 914.3 530 960 519.2C1005.7 508.3 1051.3 443.7 1097 434.7C1142.7 425.7 1188.3 472.3 1234 510.2C1279.7 548 1325.3 577 1371.2 578.8C1417 580.7 1463 555.3 1508.8 553.5C1554.7 551.7 1600.3 573.3 1646 559C1691.7 544.7 1737.3 494.3 1783 465.5C1828.7 436.7 1874.3 429.3 1897.2 425.7L1920 422L1920 312L1897.2 319.2C1874.3 326.3 1828.7 340.7 1783 378.5C1737.3 416.3 1691.7 477.7 1646 492.2C1600.3 506.7 1554.7 474.3 1508.8 458.2C1463 442 1417 442 1371.2 429.3C1325.3 416.7 1279.7 391.3 1234 378.7C1188.3 366 1142.7 366 1097 391.2C1051.3 416.3 1005.7 466.7 960 472.2C914.3 477.7 868.7 438.3 823 411.3C777.3 384.3 731.7 369.7 686 364.2C640.3 358.7 594.7 362.3 548.8 337.2C503 312 457 258 411.2 225.7C365.3 193.3 319.7 182.7 274 182.7C228.3 182.7 182.7 193.3 137 252.7C91.3 312 45.7 420 22.8 474L0 528Z" fill="#112a51"></path><path d="M0 757L22.8 681.3C45.7 605.7 91.3 454.3 137 386C182.7 317.7 228.3 332.3 274 377.3C319.7 422.3 365.3 497.7 411.2 524.7C457 551.7 503 530.3 548.8 539.3C594.7 548.3 640.3 587.7 686 609.2C731.7 630.7 777.3 634.3 823 648.8C868.7 663.3 914.3 688.7 960 652.7C1005.7 616.7 1051.3 519.3 1097 499.5C1142.7 479.7 1188.3 537.3 1234 587.8C1279.7 638.3 1325.3 681.7 1371.2 692.5C1417 703.3 1463 681.7 1508.8 676.2C1554.7 670.7 1600.3 681.3 1646 663.3C1691.7 645.3 1737.3 598.7 1783 555.5C1828.7 512.3 1874.3 472.7 1897.2 452.8L1920 433L1920 420L1897.2 423.7C1874.3 427.3 1828.7 434.7 1783 463.5C1737.3 492.3 1691.7 542.7 1646 557C1600.3 571.3 1554.7 549.7 1508.8 551.5C1463 553.3 1417 578.7 1371.2 576.8C1325.3 575 1279.7 546 1234 508.2C1188.3 470.3 1142.7 423.7 1097 432.7C1051.3 441.7 1005.7 506.3 960 517.2C914.3 528 868.7 485 823 465.3C777.3 445.7 731.7 449.3 686 449.3C640.3 449.3 594.7 445.7 548.8 425.8C503 406 457 370 411.2 328.5C365.3 287 319.7 240 274 231C228.3 222 182.7 251 137 332C91.3 413 45.7 546 22.8 612.5L0 679Z" fill="#0d2548"></path><path d="M0 843L22.8 762C45.7 681 91.3 519 137 456C182.7 393 228.3 429 274 472.3C319.7 515.7 365.3 566.3 411.2 580.8C457 595.3 503 573.7 548.8 582.7C594.7 591.7 640.3 631.3 686 647.5C731.7 663.7 777.3 656.3 823 677.8C868.7 699.3 914.3 749.7 960 731.7C1005.7 713.7 1051.3 627.3 1097 600.3C1142.7 573.3 1188.3 605.7 1234 641.7C1279.7 677.7 1325.3 717.3 1371.2 730C1417 742.7 1463 728.3 1508.8 726.5C1554.7 724.7 1600.3 735.3 1646 717.3C1691.7 699.3 1737.3 652.7 1783 618.5C1828.7 584.3 1874.3 562.7 1897.2 551.8L1920 541L1920 431L1897.2 450.8C1874.3 470.7 1828.7 510.3 1783 553.5C1737.3 596.7 1691.7 643.3 1646 661.3C1600.3 679.3 1554.7 668.7 1508.8 674.2C1463 679.7 1417 701.3 1371.2 690.5C1325.3 679.7 1279.7 636.3 1234 585.8C1188.3 535.3 1142.7 477.7 1097 497.5C1051.3 517.3 1005.7 614.7 960 650.7C914.3 686.7 868.7 661.3 823 646.8C777.3 632.3 731.7 628.7 686 607.2C640.3 585.7 594.7 546.3 548.8 537.3C503 528.3 457 549.7 411.2 522.7C365.3 495.7 319.7 420.3 274 375.3C228.3 330.3 182.7 315.7 137 384C91.3 452.3 45.7 603.7 22.8 679.3L0 755Z" fill="#0c2343"></path><path d="M0 973L22.8 980.2C45.7 987.3 91.3 1001.7 137 971C182.7 940.3 228.3 864.7 274 853.8C319.7 843 365.3 897 411.2 924C457 951 503 951 548.8 952.8C594.7 954.7 640.3 958.3 686 958.3C731.7 958.3 777.3 954.7 823 936.7C868.7 918.7 914.3 886.3 960 866.7C1005.7 847 1051.3 840 1097 838.2C1142.7 836.3 1188.3 839.7 1234 854C1279.7 868.3 1325.3 893.7 1371.2 886.5C1417 879.3 1463 839.7 1508.8 857.7C1554.7 875.7 1600.3 951.3 1646 971.2C1691.7 991 1737.3 955 1783 922.7C1828.7 890.3 1874.3 861.7 1897.2 847.3L1920 833L1920 539L1897.2 549.8C1874.3 560.7 1828.7 582.3 1783 616.5C1737.3 650.7 1691.7 697.3 1646 715.3C1600.3 733.3 1554.7 722.7 1508.8 724.5C1463 726.3 1417 740.7 1371.2 728C1325.3 715.3 1279.7 675.7 1234 639.7C1188.3 603.7 1142.7 571.3 1097 598.3C1051.3 625.3 1005.7 711.7 960 729.7C914.3 747.7 868.7 697.3 823 675.8C777.3 654.3 731.7 661.7 686 645.5C640.3 629.3 594.7 589.7 548.8 580.7C503 571.7 457 593.3 411.2 578.8C365.3 564.3 319.7 513.7 274 470.3C228.3 427 182.7 391 137 454C91.3 517 45.7 679 22.8 760L0 841Z" fill="#0b203d"></path><path d="M0 1081L22.8 1081C45.7 1081 91.3 1081 137 1081C182.7 1081 228.3 1081 274 1081C319.7 1081 365.3 1081 411.2 1081C457 1081 503 1081 548.8 1081C594.7 1081 640.3 1081 686 1081C731.7 1081 777.3 1081 823 1081C868.7 1081 914.3 1081 960 1081C1005.7 1081 1051.3 1081 1097 1081C1142.7 1081 1188.3 1081 1234 1081C1279.7 1081 1325.3 1081 1371.2 1081C1417 1081 1463 1081 1508.8 1081C1554.7 1081 1600.3 1081 1646 1081C1691.7 1081 1737.3 1081 1783 1081C1828.7 1081 1874.3 1081 1897.2 1081L1920 1081L1920 831L1897.2 845.3C1874.3 859.7 1828.7 888.3 1783 920.7C1737.3 953 1691.7 989 1646 969.2C1600.3 949.3 1554.7 873.7 1508.8 855.7C1463 837.7 1417 877.3 1371.2 884.5C1325.3 891.7 1279.7 866.3 1234 852C1188.3 837.7 1142.7 834.3 1097 836.2C1051.3 838 1005.7 845 960 864.7C914.3 884.3 868.7 916.7 823 934.7C777.3 952.7 731.7 956.3 686 956.3C640.3 956.3 594.7 952.7 548.8 950.8C503 949 457 949 411.2 922C365.3 895 319.7 841 274 851.8C228.3 862.7 182.7 938.3 137 969C91.3 999.7 45.7 985.3 22.8 978.2L0 971Z" fill="#0b1e38"></path></svg>