<svg id="visual" viewBox="0 0 1920 1080" width="1920" height="1080" xmlns="http://www.w3.org/2000/svg" xmlns:xlink="http://www.w3.org/1999/xlink" version="1.1"><rect x="0" y="0" width="1920" height="1080" fill="#1d252d"></rect><g fill="none" stroke="#FF0066" stroke-width="4"><path d="M0 -148.2L33.3 -45.8L140.9 -45.8L53.8 17.5L87.1 119.9L0 56.6L-87.1 119.9L-53.8 17.5L-140.9 -45.8L-33.3 -45.8Z" transform="translate(937 17)"></path><path d="M0 -111.4L25 -34.4L105.9 -34.4L40.5 13.1L65.5 90.1L0 42.5L-65.5 90.1L-40.5 13.1L-105.9 -34.4L-25 -34.4Z" transform="translate(1209 544)"></path><path d="M0 -127.4L28.6 -39.4L121.2 -39.4L46.3 15L74.9 103.1L0 48.7L-74.9 103.1L-46.3 15L-121.2 -39.4L-28.6 -39.4Z" transform="translate(1726 254)"></path><path d="M0 -134L30.1 -41.4L127.5 -41.4L48.7 15.8L78.8 108.4L0 51.2L-78.8 108.4L-48.7 15.8L-127.5 -41.4L-30.1 -41.4Z" transform="translate(1499 817)"></path><path d="M0 -114.2L25.6 -35.3L108.6 -35.3L41.5 13.5L67.1 92.4L0 43.6L-67.1 92.4L-41.5 13.5L-108.6 -35.3L-25.6 -35.3Z" transform="translate(382 953)"></path><path d="M0 -110.4L24.8 -34.1L105 -34.1L40.1 13L64.9 89.3L0 42.2L-64.9 89.3L-40.1 13L-105 -34.1L-24.8 -34.1Z" transform="translate(76 108)"></path><path d="M0 -125.5L28.2 -38.8L119.4 -38.8L45.6 14.8L73.8 101.6L0 47.9L-73.8 101.6L-45.6 14.8L-119.4 -38.8L-28.2 -38.8Z" transform="translate(254 396)"></path><path d="M0 -118L26.5 -36.5L112.2 -36.5L42.9 13.9L69.3 95.4L0 45.1L-69.3 95.4L-42.9 13.9L-112.2 -36.5L-26.5 -36.5Z" transform="translate(1869 765)"></path><path d="M0 -121.8L27.3 -37.6L115.8 -37.6L44.2 14.4L71.6 98.5L0 46.5L-71.6 98.5L-44.2 14.4L-115.8 -37.6L-27.3 -37.6Z" transform="translate(958 353)"></path><path d="M0 -141.6L31.8 -43.7L134.6 -43.7L51.4 16.7L83.2 114.5L0 54.1L-83.2 114.5L-51.4 16.7L-134.6 -43.7L-31.8 -43.7Z" transform="translate(1005 791)"></path><path d="M0 -123.6L27.8 -38.2L117.6 -38.2L44.9 14.6L72.7 100L0 47.2L-72.7 100L-44.9 14.6L-117.6 -38.2L-27.8 -38.2Z" transform="translate(661 501)"></path><path d="M0 -110.4L24.8 -34.1L105 -34.1L40.1 13L64.9 89.3L0 42.2L-64.9 89.3L-40.1 13L-105 -34.1L-24.8 -34.1Z" transform="translate(100 719)"></path><path d="M0 -122.7L27.5 -37.9L116.7 -37.9L44.6 14.5L72.1 99.3L0 46.9L-72.1 99.3L-44.6 14.5L-116.7 -37.9L-27.5 -37.9Z" transform="translate(1731 1075)"></path><path d="M0 -125.5L28.2 -38.8L119.4 -38.8L45.6 14.8L73.8 101.6L0 47.9L-73.8 101.6L-45.6 14.8L-119.4 -38.8L-28.2 -38.8Z" transform="translate(375 3)"></path><path d="M0 -118.9L26.7 -36.7L113.1 -36.7L43.2 14L69.9 96.2L0 45.4L-69.9 96.2L-43.2 14L-113.1 -36.7L-26.7 -36.7Z" transform="translate(1400 156)"></path><path d="M0 -124.6L28 -38.5L118.5 -38.5L45.3 14.7L73.2 100.8L0 47.6L-73.2 100.8L-45.3 14.7L-118.5 -38.5L-28 -38.5Z" transform="translate(798 1056)"></path><path d="M0 -142.5L32 -44L135.5 -44L51.8 16.8L83.8 115.3L0 54.4L-83.8 115.3L-51.8 16.8L-135.5 -44L-32 -44Z" transform="translate(45 1065)"></path><path d="M0 -120.8L27.1 -37.3L114.9 -37.3L43.9 14.3L71 97.7L0 46.1L-71 97.7L-43.9 14.3L-114.9 -37.3L-27.1 -37.3Z" transform="translate(1182 1074)"></path></g></svg>